<svg width="65" height="57" viewBox="0 0 65 57" fill="none" xmlns="http://www.w3.org/2000/svg">
<path d="M32.6755 55.998C25.4428 48.3006 20.3193 46.421 10.4803 44.6661L10.4803 18.8001" stroke="black" stroke-width="2"/>
<path d="M32.1522 56.1269C39.5503 49.4073 44.1676 46.4979 54.6797 45.471L54.6797 18.8001" stroke="black" stroke-width="2"/>
<path d="M32.639 51.0946C27.0977 44.2933 22.4364 42.7352 14.3542 41.9045L14.3542 14.9224C22.262 15.8809 26.2834 17.3639 32.639 21.9713M32.639 51.0946C38.7549 44.5771 44.216 42.1363 51.1387 42.0236L51.1387 14.9224C43.389 16.1934 39.37 17.8256 32.639 21.9713M32.639 51.0946L32.639 21.9713" stroke="black" stroke-width="2"/>
<ellipse cx="19.7931" cy="25.5921" rx="0.906054" ry="0.906054" transform="rotate(0.0159231 19.7931 25.5921)" fill="#F53838"/>
<path d="M22.0582 25.5927L29.3067 25.5947" stroke="#F53838" stroke-linecap="round"/>
<ellipse cx="19.7922" cy="28.7633" rx="0.906054" ry="0.906054" transform="rotate(0.0159231 19.7922 28.7633)" fill="black"/>
<path d="M22.0573 28.7639L29.3058 28.7659" stroke="#F53838" stroke-linecap="round"/>
<ellipse cx="19.7904" cy="35.1057" rx="0.906054" ry="0.906054" transform="rotate(0.0159231 19.7904 35.1057)" fill="#F53838"/>
<path d="M22.0556 35.1063L29.304 35.1083" stroke="#F53838" stroke-linecap="round"/>
<ellipse cx="19.7896" cy="38.2769" rx="0.906054" ry="0.906054" transform="rotate(0.0159231 19.7896 38.2769)" fill="#F53838"/>
<path d="M22.0547 38.2775C27.5775 38.072 29.2303 39.4243 29.5285 42.3568" stroke="#F53838" stroke-linecap="round"/>
<path d="M19.7242 31.9345L29.372 31.9371" stroke="#F53838" stroke-linecap="round"/>
<ellipse cx="19.7913" cy="31.9345" rx="0.906054" ry="0.906054" transform="rotate(0.0159231 19.7913 31.9345)" fill="#F53838"/>
<ellipse cx="29.3049" cy="31.9371" rx="0.906054" ry="0.906054" transform="rotate(0.0159231 29.3049 31.9371)" fill="#F53838"/>
<path d="M35.4177 42.8115L35.4194 36.9221M39.4998 25.3711L39.4993 27.4097L35.421 31.2593L35.4201 34.204L35.4194 36.9221M35.4194 36.9221L39.2712 32.846L44.2545 32.8473" stroke="black"/>
<path d="M40.1326 24.4652C40.1326 24.8145 39.8493 25.0977 39.4999 25.0976C39.1505 25.0975 38.8674 24.8142 38.8675 24.4648C38.8676 24.1155 39.1509 23.8323 39.5003 23.8324C39.8496 23.8325 40.1327 24.1158 40.1326 24.4652Z" fill="#D9D9D9" stroke="black"/>
<path d="M46.0212 27.185C46.0211 27.5343 45.7379 27.8175 45.3885 27.8174C45.0391 27.8173 44.756 27.534 44.7561 27.1846C44.7562 26.8353 45.0395 26.5521 45.3889 26.5522C45.7382 26.5523 46.0213 26.8356 46.0212 27.185Z" fill="#D9D9D9" stroke="black"/>
<path d="M46.0186 36.6986C46.0185 37.0479 45.7352 37.3311 45.3859 37.331C45.0365 37.3309 44.7534 37.0476 44.7535 36.6982C44.7536 36.3489 45.0369 36.0657 45.3862 36.0658C45.7356 36.0659 46.0187 36.3492 46.0186 36.6986Z" fill="#D9D9D9" stroke="black"/>
<path d="M46.0197 32.8478C46.0196 33.1972 45.7363 33.4803 45.3869 33.4802C45.0376 33.4801 44.7544 33.1968 44.7545 32.8475C44.7546 32.4981 45.0379 32.215 45.3873 32.2151C45.7366 32.2152 46.0198 32.4985 46.0197 32.8478Z" fill="#D9D9D9" stroke="black"/>
<path d="M45.3874 31.9416L45.3885 27.8643" stroke="black"/>
<path d="M39.5699 41.286C39.4967 36.7557 39.5711 36.6968 44.5544 36.7571" stroke="black"/>
</svg>
